<svg xmlns="http://www.w3.org/2000/svg" xmlns:xlink="http://www.w3.org/1999/xlink" width="83" height="77" viewBox="0 0 83 77">
  <defs>
    <filter id="Path_41" x="0" y="0" width="83" height="77" filterUnits="userSpaceOnUse">
      <feOffset dy="3" input="SourceAlpha"/>
      <feGaussianBlur stdDeviation="3" result="blur"/>
      <feFlood flood-opacity="0.161"/>
      <feComposite operator="in" in2="blur"/>
      <feComposite in="SourceGraphic"/>
    </filter>
  </defs>
  <g id="Group_128" data-name="Group 128" transform="translate(-275 -4)">
    <g transform="matrix(1, 0, 0, 1, 275, 4)" filter="url(#Path_41)">
      <path id="Path_41-2" data-name="Path 41" d="M32.5,0C50.449,0,65,13.208,65,29.5S50.449,59,32.5,59,0,45.792,0,29.5,14.551,0,32.5,0Z" transform="translate(9 6)" fill="#fff"/>
    </g>
    <path id="filter" d="M29.913,10.253a.907.907,0,0,0-.822-.57H.909a.907.907,0,0,0-.822.57A1.07,1.07,0,0,0,.207,11.31L11.041,25.68V38.931a1.019,1.019,0,0,0,.43.845.842.842,0,0,0,.883.046l6.087-3.3a1.007,1.007,0,0,0,.505-.89l.012-9.952L29.792,11.31A1.069,1.069,0,0,0,29.913,10.253ZM17.347,24.691a1.053,1.053,0,0,0-.208.631l-.012,9.693-4.269,2.314V25.323a1.052,1.052,0,0,0-.208-.633L2.837,11.672H27.162Z" transform="translate(302 15.317)" fill="#707070"/>
  </g>
</svg>
